<svg xmlns="http://www.w3.org/2000/svg" version="1.1" xmlns:xlink="http://www.w3.org/1999/xlink" xmlns:svgjs="http://svgjs.dev/svgjs" width="128" height="128" viewBox="0 0 128 128"><g transform="matrix(0.8046875,0,0,0.8046875,12.760752631578946,14.646749976644337)"><svg viewBox="0 0 95 91" data-background-color="#102e44" preserveAspectRatio="xMidYMid meet" height="122" width="128" xmlns="http://www.w3.org/2000/svg" xmlns:xlink="http://www.w3.org/1999/xlink"><g id="tight-bounds" transform="matrix(1,0,0,1,-0.24049999999999727,0.2477842011815028)"><svg viewBox="0 0 95.481 90.504431597637" height="90.504431597637" width="95.481"><g><svg viewBox="0 0 95.481 90.504431597637" height="90.504431597637" width="95.481"><g><svg viewBox="0 0 95.481 90.504431597637" height="90.504431597637" width="95.481"><g id="textblocktransform"><svg viewBox="0 0 95.481 90.504431597637" height="90.504431597637" width="95.481" id="textblock"><g><svg viewBox="0 0 95.481 90.504431597637" height="90.504431597637" width="95.481"><g><svg viewBox="0 0 95.481 90.504431597637" height="90.504431597637" width="95.481"><g><svg xmlns="http://www.w3.org/2000/svg" xmlns:xlink="http://www.w3.org/1999/xlink" version="1.1" x="0" y="0" viewBox="6.382933214198014 10.311610812960534 87.23306678580198 82.68638918703947" enable-background="new 0 0 100 100" xml:space="preserve" height="90.504431597637" width="95.481" class="icon-icon-0" data-fill-palette-color="accent" id="icon-0"><path d="M65.647 21.365c0 0-33.186-21.586-53.276-4.427 0 0-0.924 0.745-4.581 1.546 0 0-3.289 2.645 0.19 3.763 0 0 17.834 3.035 22.151 6.627 0 0 3.232 15.046 13.171 14.877 0 0-2.531-4.075-3.385-7.995 0 0 31.946 19.462 33.428 22.624 0 0 5.414 8.551 10.849 24.209 0 0-5.304 6.357-3.408 10.324 0 0 3.329-2.002 5.138-0.463l1.493-0.767 0.996 1.085c0 0 3.042-1.711 5.203 0.23 0 0-0.875-5.943-4.031-8.97-3.155-3.027 6.513-17.006-9.94-46.179 0 0-5.788-10.972 5.07-11.615l0.687-0.644C85.401 25.593 84.064 19.887 65.647 21.365z" fill="#000000" data-fill-palette-color="accent"></path></svg></g></svg></g></svg></g></svg></g></svg></g></svg></g><defs></defs></svg><rect width="95.481" height="90.504431597637" fill="none" stroke="none" visibility="hidden"></rect></g></svg></g></svg>