<svg xmlns="http://www.w3.org/2000/svg" version="1.1" xmlns:xlink="http://www.w3.org/1999/xlink" xmlns:svgjs="http://svgjs.dev/svgjs" width="2000" height="296" viewBox="0 0 2000 296"><g transform="matrix(1,0,0,1,-1.0818619566473444,-1.1707578947368233)"><svg viewBox="0 0 384 57" data-background-color="#102e44" preserveAspectRatio="xMidYMid meet" height="296" width="2000" xmlns="http://www.w3.org/2000/svg" xmlns:xlink="http://www.w3.org/1999/xlink"><g id="tight-bounds" transform="matrix(1,0,0,1,0.20771749567629172,0.22544999999999504)"><svg viewBox="0 0 383.5845650086474 56.5491" height="56.5491" width="383.5845650086474"><g><svg viewBox="0 0 383.5845650086474 56.5491" height="56.5491" width="383.5845650086474"><g><svg viewBox="0 0 383.5845650086474 56.5491" height="56.5491" width="383.5845650086474"><g id="textblocktransform"><svg viewBox="0 0 383.5845650086474 56.5491" height="56.5491" width="383.5845650086474" id="textblock"><g><svg viewBox="0 0 383.5845650086474 56.5491" height="56.5491" width="383.5845650086474"><g><svg><g></g><g></g></svg></g><g><svg><g><svg></svg></g><g></g></svg></g><g id="text-0"><svg viewBox="0 0 383.5845650086474 56.5491" height="56.5491" width="383.5845650086474"><g transform="matrix(1,0,0,1,0,0)"><svg width="310.57509999999996" viewBox="0 -34.95000076293945 191.94000244140625 34.95000076293945" height="56.5491" data-palette-color="#ffffff"><path d="M10.75-2.15L30.2-2.15 30.2 0 0 0 0-2.15 4.85-2.15 4.85-34.95 28.15-34.95 28.1-29.45 10.75-29.45 10.75-19.85 26.25-19.85 26.25-14.4 10.75-14.4 10.75-2.15ZM30.2-2.15L35.05-2.15 35.05-34.95 40.95-34.95 40.95-2.15 45.8-2.15 45.8 0 30.2 0 30.2-2.15ZM45.8-2.15L50.65-2.15 50.65-34.95 56.55-34.95 76.84-8.85 76.84-34.95 82.75-34.95 82.75-2.15 87.59-2.15 87.59 0 76.34 0 56.55-25.5 56.55 0 45.8 0 45.8-2.15ZM105.64-2.15L117.79-2.15 117.79 0 87.59 0 87.59-2.15 99.74-2.15 99.74-29.55 89.14-29.55 89.14-34.95 116.24-34.95 116.24-29.55 105.64-29.55 105.64-2.15ZM150.59-2.15L155.44-2.15 155.44 0 144.64 0 136.29-11.75 128.54-11.75 128.54 0 117.79 0 117.79-2.15 122.64-2.15 122.64-34.95 135.64-34.95Q143.64-34.95 147.09-32.25 150.54-29.55 150.54-23.6L150.54-23.6Q150.54-14.95 142.99-12.7L142.99-12.7 150.59-2.15ZM135.89-17.1Q140.89-17.1 142.69-18.65 144.49-20.2 144.49-23.63 144.49-27.05 142.64-28.33 140.79-29.6 136.04-29.6L136.04-29.6 128.54-29.6 128.54-17.1 135.89-17.1ZM154.19-2.15L159.04-2.15 159.04-34.95 164.94-34.95 164.94-17.9 180.94-34.95 188.44-34.95 174.39-19.65 187.09-2.1 187.09-2.15 191.94-2.15 191.94 0 181.64 0 170.04-15.3 164.94-9.8 164.94 0 154.19 0 154.19-2.15Z" opacity="1" transform="matrix(1,0,0,1,0,0)" fill="#000000" class="wordmark-text-0" data-fill-palette-color="primary"></path></svg></g><g><svg xmlns="http://www.w3.org/2000/svg" xmlns:xlink="http://www.w3.org/1999/xlink" version="1.1" x="323.926" y="0" viewBox="6.382935523986816 10.31160831451416 87.23307800292969 82.6864013671875" enable-background="new 0 0 100 100" xml:space="preserve" height="56.5491" width="59.65856500864746" class="icon-s-0" data-fill-palette-color="accent" id="s-0"><path d="M65.647 21.365c0 0-33.186-21.586-53.276-4.427 0 0-0.924 0.745-4.581 1.546 0 0-3.289 2.645 0.19 3.763 0 0 17.834 3.035 22.151 6.627 0 0 3.232 15.046 13.171 14.877 0 0-2.531-4.075-3.385-7.995 0 0 31.946 19.462 33.428 22.624 0 0 5.414 8.551 10.849 24.209 0 0-5.304 6.357-3.408 10.324 0 0 3.329-2.002 5.138-0.463l1.493-0.767 0.996 1.085c0 0 3.042-1.711 5.203 0.23 0 0-0.875-5.943-4.031-8.97-3.155-3.027 6.513-17.006-9.94-46.179 0 0-5.788-10.972 5.07-11.615l0.687-0.644C85.401 25.593 84.064 19.887 65.647 21.365z" fill="#000000" data-fill-palette-color="accent"></path></svg></g></svg></g></svg></g></svg></g></svg></g></svg></g><defs></defs></svg><rect width="383.5845650086474" height="56.5491" fill="none" stroke="none" visibility="hidden"></rect></g></svg></g></svg>